<svg width="96" height="96" viewBox="0 0 96 96" fill="none" xmlns="http://www.w3.org/2000/svg">
  <path d="M95.974 43.876C95.962 43.694 95.928 43.52 95.868 43.348C95.846 43.284 95.83 43.222 95.802 43.16C95.706 42.952 95.584 42.756 95.416 42.59C95.414 42.588 95.414 42.588 95.414 42.588L84 31.172V20C84 19.956 83.978 19.918 83.974 19.874C83.962 19.698 83.928 19.528 83.872 19.36C83.85 19.296 83.834 19.234 83.804 19.172C83.706 18.96 83.584 18.758 83.412 18.586L65.412 0.586C65.24 0.414 65.038 0.29 64.824 0.194C64.764 0.166 64.704 0.15 64.642 0.13C64.472 0.07 64.298 0.036 64.116 0.026C64.078 0.02 64.042 0 64 0H14C12.896 0 12 0.896 12 2V31.172L0.586 42.586C0.586 42.586 0.584 42.588 0.582 42.59C0.414 42.758 0.294 42.954 0.198 43.16C0.17 43.222 0.154 43.284 0.132 43.348C0.072 43.52 0.036 43.694 0.026 43.876C0.022 43.92 0 43.956 0 44V82C0 83.104 0.896 84 2 84H12V94C12 95.104 12.896 96 14 96H82C83.104 96 84 95.104 84 94V84H94C95.104 84 96 83.104 96 82V44C96 43.956 95.978 43.92 95.974 43.876ZM89.172 42H84V36.828L89.172 42ZM77.172 18H66V6.828L77.172 18ZM16 4H62V20C62 21.104 62.896 22 64 22H80V32V42H16V32V4ZM12 36.828V42H6.828L12 36.828ZM80 92H16V84H80V92ZM92 80H4V46H14H82H92V80Z" fill="black" />
  <path d="M40.2559 76H34.2793L31.7656 62.5352C31.3789 60.6953 31.1035 58.5215 30.9395 56.0137L30.7988 57.3145L30.0781 62.6055L27.6348 76H21.6582L17 50.3008H21.6934L23.9961 64.8027C24.2188 66.2559 24.5176 68.5352 24.8926 71.6406C25.1855 68.5 25.4609 66.2559 25.7188 64.9082L28.4609 50.3008H33.418L36.1602 64.9082C36.5234 67.0762 36.8105 69.332 37.0215 71.6758C37.4316 68.207 37.7305 65.916 37.918 64.8027L40.1504 50.3008H44.8789L40.2559 76Z" fill="black" />
  <path d="M60.1276 56.084C60.1276 57.7012 59.7291 59.0605 58.9323 60.1621C58.1354 61.252 57.0104 62.0078 55.5573 62.4297V62.5703C57.1745 62.8281 58.4225 63.4609 59.3014 64.4688C60.192 65.4766 60.6373 66.8477 60.6373 68.582C60.6373 70.9492 59.8991 72.8359 58.4225 74.2422C56.9577 75.6484 54.9479 76.3516 52.3932 76.3516C50.1198 76.3516 48.2096 75.9473 46.6627 75.1387V70.8496C47.4362 71.3184 48.2741 71.6875 49.1764 71.957C50.0788 72.2266 50.9459 72.3613 51.778 72.3613C53.1373 72.3613 54.1627 72.0508 54.8541 71.4297C55.5455 70.7969 55.8913 69.8008 55.8913 68.4414C55.8913 65.875 54.3151 64.5918 51.1627 64.5918H49.7038V61.0234H51.0924C52.487 61.0234 53.5534 60.6953 54.2916 60.0391C55.0416 59.3828 55.4166 58.4043 55.4166 57.1035C55.4166 56.084 55.1764 55.3164 54.6959 54.8008C54.2272 54.2734 53.5592 54.0098 52.692 54.0098C51.3678 54.0098 50.0788 54.5723 48.8248 55.6973L46.6627 52.5332C48.3971 50.7988 50.5827 49.9316 53.2194 49.9316C55.3873 49.9316 57.0807 50.4824 58.2995 51.584C59.5182 52.6738 60.1276 54.1738 60.1276 56.084Z" fill="black" />
  <path d="M73.3723 54.1152C72.0013 54.1152 70.9173 54.918 70.1204 56.5234C69.3352 58.1289 68.9427 60.3613 68.9427 63.2207C68.9427 69.1738 70.4954 72.1504 73.6009 72.1504C74.9602 72.1504 76.3841 71.7168 77.8723 70.8496V75.1035C76.6184 75.9355 75.013 76.3516 73.0559 76.3516C70.1614 76.3516 67.9348 75.2031 66.3763 72.9062C64.8294 70.5977 64.0559 67.3574 64.0559 63.1855C64.0559 59.0137 64.8528 55.7617 66.4466 53.4297C68.052 51.0977 70.2786 49.9316 73.1263 49.9316C74.0638 49.9316 74.9602 50.0605 75.8157 50.3184C76.6829 50.5762 77.6087 51.0273 78.593 51.6719L77.011 55.5566C76.4837 55.1934 75.9212 54.8652 75.3235 54.5723C74.7259 54.2676 74.0755 54.1152 73.3723 54.1152Z" fill="black" />
</svg>
  